<svg xmlns="http://www.w3.org/2000/svg" xmlns:xlink="http://www.w3.org/1999/xlink" width="500" zoomAndPan="magnify" viewBox="0 0 375 374.999991" height="500" preserveAspectRatio="xMidYMid meet" version="1.0"><defs><g/></defs><g fill="#ffbd59" fill-opacity="1"><g transform="translate(27.541941, 108.604321)"><g><path d="M 50.390625 -30.34375 C 50.660156 -29.851562 50.726562 -29.320312 50.59375 -28.75 C 50.457031 -28.1875 50.113281 -27.753906 49.5625 -27.453125 L 35.53125 -19.671875 C 34.40625 -19.054688 33.476562 -19.269531 32.75 -20.3125 L 25.53125 -31.140625 L 13.03125 -20.5625 L 15.71875 -10.890625 C 15.988281 -9.816406 15.628906 -9.003906 14.640625 -8.453125 L 0.71875 -1.125 C 0.09375 -0.78125 -0.515625 -0.742188 -1.109375 -1.015625 C -1.703125 -1.296875 -2.128906 -1.816406 -2.390625 -2.578125 C -4.066406 -9.253906 -5.976562 -17.75 -8.125 -28.0625 C -9.269531 -33.5 -10.316406 -39.847656 -11.265625 -47.109375 C -12.148438 -53.816406 -13.132812 -62.46875 -14.21875 -73.0625 C -14.269531 -73.75 -14.007812 -74.375 -13.4375 -74.9375 L -11.703125 -76.390625 C -10.035156 -77.785156 -8.742188 -78.820312 -7.828125 -79.5 C -7.335938 -79.9375 -6.441406 -80.515625 -5.140625 -81.234375 C -3.960938 -81.890625 -3.078125 -82.335938 -2.484375 -82.578125 C 0.628906 -83.984375 4.203125 -83.164062 8.234375 -80.125 C 9.609375 -78.957031 11.441406 -77.1875 13.734375 -74.8125 C 16.390625 -71.90625 19.023438 -68.910156 21.640625 -65.828125 L 50.1875 -30.71875 Z M -11.046875 -72.609375 L -11.34375 -73.171875 L -11.71875 -72.96875 L -11.421875 -72.40625 Z M 1.53125 -76.421875 L 1.125 -77.171875 L 0.84375 -77.015625 L 1.25 -76.265625 Z M 1.65625 -74.4375 C 1.65625 -74.75 1.585938 -75.03125 1.453125 -75.28125 C 1.140625 -75.113281 0.960938 -75.0625 0.921875 -75.125 L 1.234375 -74.5625 Z M -9.328125 -68.828125 L -8.671875 -67.625 C -8.804688 -67.875 -8.851562 -68.328125 -8.8125 -68.984375 L -9.09375 -68.84375 Z M 3.09375 -75.359375 C 3.15625 -75.546875 3.21875 -75.65625 3.28125 -75.6875 L 2.203125 -75.21875 L 2.40625 -74.859375 C 2.507812 -74.816406 2.597656 -74.734375 2.671875 -74.609375 L 3.03125 -74.8125 C 3 -74.875 3.019531 -75.054688 3.09375 -75.359375 Z M 2.5625 -74.5625 L 2.453125 -74.75 L 2.0625 -75.015625 L 2.21875 -74.75 Z M 4.59375 -75.078125 C 4.351562 -74.941406 4.253906 -74.609375 4.296875 -74.078125 L 4.59375 -73.984375 L 5.796875 -74.65625 L 6.0625 -75.046875 C 5.65625 -75.066406 5.394531 -75.171875 5.28125 -75.359375 L 5.328125 -75.734375 C 5.035156 -75.410156 4.789062 -75.191406 4.59375 -75.078125 Z M 5.703125 -72.421875 C 5.453125 -72.285156 5.398438 -72.09375 5.546875 -71.84375 C 5.734375 -71.789062 5.921875 -71.816406 6.109375 -71.921875 C 6.160156 -71.953125 6.351562 -71.972656 6.6875 -71.984375 C 6.726562 -72.179688 6.734375 -72.3125 6.703125 -72.375 L 6.6875 -72.59375 C 6.269531 -72.613281 5.941406 -72.554688 5.703125 -72.421875 Z M -1.359375 -67.40625 L -1.4375 -67.75 L -1.515625 -67.703125 L -1.59375 -67.390625 Z M 0.171875 -67.046875 L 0.640625 -67.3125 C 0.722656 -67.269531 0.789062 -67.28125 0.84375 -67.34375 C 0.894531 -67.414062 0.953125 -67.472656 1.015625 -67.515625 C 0.878906 -67.765625 0.710938 -67.914062 0.515625 -67.96875 C 0.441406 -67.925781 0.382812 -67.867188 0.34375 -67.796875 C 0.3125 -67.734375 0.265625 -67.6875 0.203125 -67.65625 L -0.171875 -67.453125 Z M 8.921875 -70.3125 C 8.953125 -70.25 8.847656 -70.070312 8.609375 -69.78125 C 8.484375 -69.71875 8.476562 -69.59375 8.59375 -69.40625 C 8.625 -69.34375 8.734375 -69.28125 8.921875 -69.21875 L 9.484375 -69.53125 C 9.660156 -69.789062 9.710938 -69.984375 9.640625 -70.109375 C 9.472656 -70.421875 9.234375 -70.488281 8.921875 -70.3125 Z M -9.515625 -55.375 C -9.515625 -55.519531 -9.570312 -55.4375 -9.6875 -55.125 C -9.800781 -54.820312 -9.84375 -54.644531 -9.8125 -54.59375 C -9.707031 -54.40625 -9.507812 -54.226562 -9.21875 -54.0625 C -8.925781 -53.90625 -8.75 -53.847656 -8.6875 -53.890625 C -8.726562 -54.097656 -8.832031 -54.359375 -9 -54.671875 C -9.207031 -55.046875 -9.378906 -55.28125 -9.515625 -55.375 Z M -2.328125 -57.53125 C -2.328125 -57.53125 -2.316406 -57.550781 -2.296875 -57.59375 C -2.285156 -57.632812 -2.25 -57.675781 -2.1875 -57.71875 C -1.96875 -57.757812 -1.863281 -57.859375 -1.875 -58.015625 L -2.4375 -57.9375 C -2.5 -57.90625 -2.5 -57.828125 -2.4375 -57.703125 Z M -7.5 -51.5 L -7.140625 -51.703125 L -7.75 -52.8125 L -8.0625 -52.515625 Z M 3.03125 -58.171875 C 2.53125 -57.890625 2.269531 -57.46875 2.25 -56.90625 C 2.625 -56.539062 2.921875 -56.378906 3.140625 -56.421875 C 3.359375 -56.460938 3.597656 -56.675781 3.859375 -57.0625 L 3.75 -57.953125 L 3.546875 -58.09375 C 3.515625 -58.164062 3.398438 -58.222656 3.203125 -58.265625 Z M 13.21875 -63.453125 L 13.859375 -63.8125 L 13.75 -64.015625 L 13.109375 -63.65625 Z M 15.0625 -62.53125 C 14.894531 -62.84375 14.628906 -62.894531 14.265625 -62.6875 L 14.3125 -62.359375 L 14.515625 -62.21875 Z M 12.640625 -47.828125 C 11.285156 -49.671875 10.25 -51.035156 9.53125 -51.921875 C 7.582031 -54.253906 6.097656 -55.988281 5.078125 -57.125 L 8.796875 -39.625 L 15.671875 -43.671875 Z M 3.640625 -54.640625 L 3.890625 -54.640625 L 3.75 -55.53125 L 3.515625 -55.515625 Z M 12.671875 -59.625 L 12.8125 -59.8125 L 12.515625 -59.90625 L 12.28125 -59.65625 Z M 4.03125 -47.796875 C 4.144531 -48.023438 4.234375 -48.335938 4.296875 -48.734375 C 4.367188 -49.128906 4.378906 -49.4375 4.328125 -49.65625 L 4.09375 -50.515625 L 3.953125 -52.984375 L 3.390625 -52.90625 L 3.125 -52.28125 C 3.007812 -51.894531 2.921875 -51.6875 2.859375 -51.65625 C 3.203125 -50.300781 3.363281 -49.648438 3.34375 -49.703125 C 3.382812 -49.171875 3.375 -48.890625 3.3125 -48.859375 C 3.382812 -48.734375 3.359375 -48.5625 3.234375 -48.34375 C 3.179688 -48.144531 3.210938 -47.875 3.328125 -47.53125 L 3.796875 -45.109375 L 4.15625 -43.609375 C 4.28125 -42.953125 4.273438 -42.300781 4.140625 -41.65625 C 4.003906 -41.019531 3.976562 -40.519531 4.0625 -40.15625 C 4.144531 -39.800781 4.203125 -39.59375 4.234375 -39.53125 C 4.242188 -39.21875 4.335938 -38.898438 4.515625 -38.578125 C 4.648438 -38.179688 4.703125 -37.644531 4.671875 -36.96875 C 4.703125 -36.34375 4.753906 -35.890625 4.828125 -35.609375 C 5.066406 -35.171875 5.25 -34.984375 5.375 -35.046875 C 5.59375 -35.085938 5.75 -35.175781 5.84375 -35.3125 C 5.84375 -35.3125 5.878906 -35.457031 5.953125 -35.75 C 5.890625 -36.445312 5.785156 -37.070312 5.640625 -37.625 C 5.390625 -38.21875 5.332031 -38.835938 5.46875 -39.484375 C 5.363281 -39.671875 5.394531 -40.050781 5.5625 -40.625 L 5.375 -41.859375 C 5.394531 -42.109375 5.304688 -42.707031 5.109375 -43.65625 C 4.910156 -44.601562 4.757812 -45.609375 4.65625 -46.671875 Z M 15.671875 -57.046875 C 15.671875 -57.046875 15.675781 -57.066406 15.6875 -57.109375 C 15.707031 -57.148438 15.71875 -57.171875 15.71875 -57.171875 L 15.03125 -56.921875 L 15.234375 -56.5625 L 15.78125 -56.859375 Z M 18 -57.234375 L 17.34375 -57.109375 L 17.453125 -56.921875 L 18.09375 -57.046875 Z M 13.796875 -54.296875 C 13.929688 -54.210938 14.054688 -54.203125 14.171875 -54.265625 C 14.296875 -54.335938 14.328125 -54.429688 14.265625 -54.546875 Z M 20.4375 -53.71875 C 20.75 -53.894531 20.835938 -54.101562 20.703125 -54.34375 Z M 14.640625 -50.140625 C 14.597656 -50.203125 14.484375 -50.265625 14.296875 -50.328125 L 13.859375 -50.203125 L 14.078125 -49.828125 Z M 18.484375 -51.078125 C 18.148438 -51.523438 17.613281 -51.628906 16.875 -51.390625 C 16.71875 -51.210938 16.722656 -50.96875 16.890625 -50.65625 L 17.453125 -50.96875 C 17.242188 -50.625 17.335938 -50.390625 17.734375 -50.265625 L 18.5625 -50.71875 L 18.390625 -51.015625 Z M 20.609375 -52.984375 C 20.984375 -53.179688 21.132812 -53.335938 21.0625 -53.453125 C 21 -53.421875 20.941406 -53.410156 20.890625 -53.421875 C 20.847656 -53.441406 20.8125 -53.484375 20.78125 -53.546875 L 20.59375 -53.4375 C 20.46875 -53.375 20.4375 -53.28125 20.5 -53.15625 Z M 19.40625 -52.3125 C 19.582031 -52.238281 19.703125 -52.222656 19.765625 -52.265625 L 19.828125 -52.640625 C 19.785156 -52.703125 19.578125 -52.632812 19.203125 -52.4375 Z M 21.171875 -51.953125 C 21.492188 -51.960938 21.71875 -52 21.84375 -52.0625 C 22.15625 -52.238281 22.410156 -52.503906 22.609375 -52.859375 C 22.222656 -52.972656 21.898438 -52.960938 21.640625 -52.828125 L 20.90625 -52.421875 Z M 19.28125 -49.421875 C 19.53125 -49.566406 19.703125 -49.625 19.796875 -49.59375 L 20.359375 -49.90625 L 20.109375 -50.375 L 19.765625 -50.3125 C 19.671875 -50.34375 19.5625 -50.320312 19.4375 -50.25 C 19.195312 -49.945312 19.144531 -49.671875 19.28125 -49.421875 Z M 15.40625 -47.671875 L 15.5 -47.46875 L 16.25 -47.875 L 16.15625 -48.078125 Z M 23.796875 -51.8125 C 23.597656 -52.039062 23.4375 -52.117188 23.3125 -52.046875 L 22.375 -51.53125 C 22.195312 -51.09375 22.039062 -50.78125 21.90625 -50.59375 C 21.78125 -50.40625 21.734375 -50.28125 21.765625 -50.21875 C 21.898438 -49.96875 22.488281 -49.5625 23.53125 -49 L 24.828125 -49.734375 L 25.140625 -50.015625 C 24.785156 -50.234375 24.484375 -50.273438 24.234375 -50.140625 C 23.984375 -49.992188 23.578125 -50.003906 23.015625 -50.171875 C 23.367188 -50.535156 23.539062 -50.796875 23.53125 -50.953125 C 23.5 -51.171875 23.585938 -51.457031 23.796875 -51.8125 Z M 1.0625 -39.34375 L 1.328125 -38.40625 C 1.460938 -38.15625 1.660156 -38.019531 1.921875 -38 C 1.929688 -38.414062 1.878906 -38.71875 1.765625 -38.90625 L 1.421875 -39.546875 Z M 19.71875 -49.078125 L 19.515625 -49.21875 L 18.875 -48.859375 L 19.078125 -48.484375 L 19.765625 -48.375 L 19.71875 -48.46875 L 19.828125 -48.65625 L 20.015625 -48.765625 Z M 21.109375 -49.234375 C 21.109375 -49.234375 21.082031 -49.238281 21.03125 -49.25 C 20.976562 -49.269531 20.953125 -49.28125 20.953125 -49.28125 L 20.765625 -49.171875 L 21.578125 -48.15625 C 21.609375 -48.507812 21.554688 -48.890625 21.421875 -49.296875 Z M 19.109375 -47.53125 C 18.960938 -47.519531 18.816406 -47.457031 18.671875 -47.34375 C 18.535156 -47.226562 18.4375 -47.148438 18.375 -47.109375 L 18.921875 -46.796875 C 19.003906 -46.929688 19.171875 -47.066406 19.421875 -47.203125 L 20.140625 -47.46875 C 20.253906 -47.53125 20.359375 -47.65625 20.453125 -47.84375 C 20.554688 -48.03125 20.578125 -48.179688 20.515625 -48.296875 Z M 18.75 -45.984375 L 18.8125 -45.65625 L 19.0625 -45.671875 L 18.9375 -46.078125 Z M 20.78125 -45.40625 C 20.800781 -45.5 20.78125 -45.609375 20.71875 -45.734375 L 20.109375 -45.53125 L 20.03125 -45.25 L 20.03125 -44.984375 L 20.796875 -45.171875 C 20.722656 -45.296875 20.71875 -45.375 20.78125 -45.40625 Z M 19.296875 -44.578125 C 19.535156 -44.710938 19.5625 -44.816406 19.375 -44.890625 Z M 25.078125 -46.453125 C 25.035156 -46.515625 24.875 -46.582031 24.59375 -46.65625 L 24.359375 -46.421875 C 24.296875 -46.390625 24.28125 -46.34375 24.3125 -46.28125 L 24.984375 -46.390625 Z M 24.953125 -44.6875 C 24.753906 -44.75 24.585938 -44.898438 24.453125 -45.140625 C 24.191406 -45.316406 24.023438 -45.46875 23.953125 -45.59375 C 23.203125 -45.644531 22.625 -45.523438 22.21875 -45.234375 C 22.28125 -45.109375 22.40625 -45.097656 22.59375 -45.203125 C 22.882812 -45.273438 23.253906 -45.113281 23.703125 -44.71875 L 24.015625 -44.171875 Z M 19.515625 -42.875 L 19.71875 -42.5 L 19.984375 -42.65625 L 19.78125 -43.03125 Z M 28.875 -46.59375 L 28.8125 -46.703125 L 28.21875 -46.5 L 28.328125 -46.296875 Z M 22.4375 -42.4375 L 22.8125 -42.640625 L 22.5625 -43.09375 L 22.1875 -42.890625 Z M 20.59375 -40.921875 L 20.484375 -41.109375 L 20.1875 -40.953125 L 20.296875 -40.765625 Z M 17.203125 -38.703125 L 17.3125 -38.5 L 17.78125 -38.75 L 17.671875 -38.953125 Z M 20.453125 -38.546875 C 20.472656 -38.640625 20.414062 -38.8125 20.28125 -39.0625 C 20.15625 -38.988281 19.988281 -38.773438 19.78125 -38.421875 L 20.171875 -38.625 Z M 23.625 -40.0625 C 23.488281 -39.570312 23.421875 -39.328125 23.421875 -39.328125 C 23.898438 -39.359375 24.265625 -39.441406 24.515625 -39.578125 C 24.765625 -40.117188 24.835938 -40.484375 24.734375 -40.671875 C 24.703125 -40.734375 24.539062 -40.804688 24.25 -40.890625 C 24.070312 -40.796875 23.953125 -40.8125 23.890625 -40.9375 Z M 27.015625 -38.546875 L 27.484375 -38.796875 L 27.390625 -38.96875 L 26.921875 -38.71875 Z M 25.796875 -37.875 C 25.972656 -37.5625 26.300781 -37.414062 26.78125 -37.4375 L 26.359375 -38.1875 Z M 29.796875 -39.21875 C 29.859375 -39.09375 30.023438 -38.960938 30.296875 -38.828125 C 30.578125 -38.703125 30.84375 -38.707031 31.09375 -38.84375 C 31.40625 -39.019531 31.578125 -39.15625 31.609375 -39.25 C 31.609375 -39.25 31.773438 -39.390625 32.109375 -39.671875 C 31.984375 -39.753906 31.851562 -39.757812 31.71875 -39.6875 L 31.203125 -39.765625 C 31.109375 -39.785156 30.921875 -40.046875 30.640625 -40.546875 C 30.722656 -40.265625 30.640625 -40.054688 30.390625 -39.921875 Z M 9.03125 -27.59375 L 9.296875 -27.125 L 10.296875 -27.6875 L 10.03125 -28.15625 Z M 8.796875 -25.15625 C 8.535156 -25.332031 8.367188 -25.488281 8.296875 -25.625 C 7.503906 -25.582031 7.046875 -25.523438 6.921875 -25.453125 C 6.609375 -25.285156 6.425781 -25.066406 6.375 -24.796875 C 6.320312 -24.523438 6.328125 -24.328125 6.390625 -24.203125 C 6.503906 -24.015625 6.742188 -23.878906 7.109375 -23.796875 C 7.472656 -23.710938 7.8125 -23.757812 8.125 -23.9375 C 8.25 -24.007812 8.320312 -24.09375 8.34375 -24.1875 L 9.28125 -24.703125 Z M 23.9375 -34.875 L 24.140625 -34.515625 L 24.40625 -34.671875 L 24.203125 -35.03125 Z M 34.59375 -40.4375 L 34.5 -40.609375 L 34.125 -40.390625 L 34.21875 -40.21875 Z M 25.15625 -35.09375 C 25.445312 -35.164062 25.628906 -35.132812 25.703125 -35 L 26.625 -35.515625 L 26.453125 -35.8125 Z M 20.65625 -32.46875 L 20.4375 -32.21875 L 20.625 -32.09375 L 20.859375 -32.3125 Z M 43.234375 -28.3125 C 43.421875 -28.414062 43.546875 -28.570312 43.609375 -28.78125 L 42 -30.796875 L 40.390625 -32.828125 L 39.765625 -33.078125 L 39.328125 -33.4375 C 39.222656 -33.625 39.25 -33.925781 39.40625 -34.34375 C 38.6875 -34.351562 38.289062 -34.5 38.21875 -34.78125 C 38.125 -35.207031 38.046875 -35.484375 37.984375 -35.609375 C 37.773438 -35.984375 37.429688 -36.320312 36.953125 -36.625 C 36.585938 -36.832031 36.375 -37 36.3125 -37.125 C 36.164062 -37.375 36.1875 -37.546875 36.375 -37.640625 C 36.4375 -37.679688 36.421875 -37.796875 36.328125 -37.984375 C 36.179688 -38.222656 35.914062 -38.476562 35.53125 -38.75 L 35.171875 -37.828125 L 34.78125 -37 L 34.40625 -37.046875 L 33.890625 -37.96875 C 33.722656 -38.28125 33.914062 -38.585938 34.46875 -38.890625 L 35 -38.8125 L 34.578125 -39.5625 C 34.316406 -39.59375 34.007812 -39.566406 33.65625 -39.484375 C 33.300781 -39.410156 33.0625 -39.335938 32.9375 -39.265625 C 32.625 -39.097656 32.3125 -38.785156 32 -38.328125 C 31.6875 -37.867188 31.597656 -37.515625 31.734375 -37.265625 C 31.765625 -37.203125 31.878906 -37.144531 32.078125 -37.09375 L 32.609375 -37 C 32.515625 -36.71875 32.632812 -36.503906 32.96875 -36.359375 L 33.484375 -36.28125 C 33.546875 -36.320312 33.609375 -36.316406 33.671875 -36.265625 C 33.742188 -36.222656 33.78125 -36.203125 33.78125 -36.203125 C 33.65625 -35.972656 33.472656 -35.789062 33.234375 -35.65625 C 32.671875 -35.34375 32.472656 -35.03125 32.640625 -34.71875 C 32.765625 -34.21875 32.828125 -33.96875 32.828125 -33.96875 C 32.910156 -34.09375 33.046875 -34.171875 33.234375 -34.203125 C 33.429688 -34.234375 33.53125 -34.171875 33.53125 -34.015625 C 33.601562 -33.890625 33.578125 -33.789062 33.453125 -33.71875 C 33.390625 -33.6875 33.375 -33.640625 33.40625 -33.578125 C 33.476562 -33.453125 33.5 -33.335938 33.46875 -33.234375 L 33.484375 -32.765625 L 33.953125 -31.9375 C 34.046875 -31.90625 34.457031 -31.925781 35.1875 -32 C 35.914062 -32.082031 36.070312 -31.84375 35.65625 -31.28125 C 35.875 -31.320312 36.257812 -31.5 36.8125 -31.8125 C 37 -31.90625 37.140625 -32.019531 37.234375 -32.15625 L 37.796875 -32.46875 L 38.515625 -31.171875 L 38.421875 -31.125 L 38.46875 -31.03125 L 38.375 -30.96875 L 38.796875 -30.84375 C 39.097656 -30.757812 39.25 -30.71875 39.25 -30.71875 C 39.320312 -30.601562 39.414062 -30.578125 39.53125 -30.640625 C 39.53125 -30.640625 39.675781 -30.597656 39.96875 -30.515625 L 40.515625 -29.734375 C 40.816406 -29.484375 41.171875 -29.359375 41.578125 -29.359375 C 41.648438 -29.222656 41.671875 -29.101562 41.640625 -29 L 41.734375 -28.828125 C 41.804688 -28.703125 42.046875 -28.566406 42.453125 -28.421875 C 42.859375 -28.285156 43.117188 -28.25 43.234375 -28.3125 Z M 2.015625 -20.0625 C 2.085938 -20.363281 1.925781 -20.4375 1.53125 -20.28125 L 1.625 -20.09375 Z M 6.828125 -20.796875 C 6.890625 -20.984375 6.769531 -21.117188 6.46875 -21.203125 C 6.425781 -21.015625 6.457031 -20.828125 6.5625 -20.640625 C 6.59375 -20.585938 6.664062 -20.59375 6.78125 -20.65625 C 6.84375 -20.695312 6.859375 -20.742188 6.828125 -20.796875 Z M 32.09375 -33.546875 C 32.15625 -33.585938 32.132812 -33.707031 32.03125 -33.90625 L 31.375 -33.546875 C 31.476562 -33.347656 31.5625 -33.265625 31.625 -33.296875 C 31.625 -33.296875 31.765625 -33.257812 32.046875 -33.1875 C 32.015625 -33.25 32.003906 -33.300781 32.015625 -33.34375 C 32.035156 -33.394531 32.0625 -33.460938 32.09375 -33.546875 Z M 5.53125 -17.890625 L 5.65625 -18.078125 L 5.40625 -18.546875 C 5.300781 -18.722656 5.0625 -18.710938 4.6875 -18.515625 L 4.5625 -18.3125 C 4.5625 -18.3125 4.550781 -18.285156 4.53125 -18.234375 C 4.519531 -18.191406 4.515625 -18.171875 4.515625 -18.171875 L 4.71875 -17.796875 Z M 27.71875 -31.125 L 27.921875 -30.765625 L 28.578125 -31.140625 L 28.375 -31.5 Z M 30.65625 -31.3125 C 30.550781 -31.5 30.410156 -31.5625 30.234375 -31.5 C 30.066406 -31.445312 29.953125 -31.40625 29.890625 -31.375 L 30.09375 -31 Z M 5.984375 -16.203125 C 5.941406 -16.265625 5.953125 -16.347656 6.015625 -16.453125 C 6.078125 -16.566406 6.125 -16.671875 6.15625 -16.765625 L 6.703125 -17.328125 L 6.5 -17.6875 C 6.300781 -17.738281 6.164062 -17.75 6.09375 -17.71875 L 5.578125 -17.796875 C 5.640625 -17.109375 5.296875 -16.554688 4.546875 -16.140625 C 4.617188 -16.003906 4.796875 -15.894531 5.078125 -15.8125 C 5.367188 -15.738281 5.609375 -15.75 5.796875 -15.84375 C 5.859375 -15.882812 5.921875 -16.003906 5.984375 -16.203125 Z M 29.90625 -30.046875 C 29.613281 -29.972656 29.421875 -29.953125 29.328125 -29.984375 L 29.78125 -29.375 L 30.609375 -30.078125 Z M 10.734375 -16.390625 C 10.816406 -16.523438 10.804688 -16.679688 10.703125 -16.859375 L 10.421875 -16.953125 C 10.296875 -16.890625 10.25 -16.820312 10.28125 -16.75 L 10.109375 -16.640625 L 9.765625 -16.34375 L 10.3125 -16.28125 Z M 7.125 -13.671875 C 7.0625 -13.628906 6.941406 -13.617188 6.765625 -13.640625 C 6.585938 -13.671875 6.425781 -13.6875 6.28125 -13.6875 C 5.96875 -13.507812 5.878906 -13.296875 6.015625 -13.046875 C 6.109375 -13.015625 6.289062 -13.117188 6.5625 -13.359375 Z M 8.46875 -13.90625 C 8.539062 -14.195312 8.609375 -14.363281 8.671875 -14.40625 C 8.523438 -14.65625 8.316406 -14.738281 8.046875 -14.65625 C 7.773438 -14.269531 7.65625 -14.046875 7.6875 -13.984375 Z M 33.375 -27.71875 C 33.300781 -27.851562 33.078125 -27.972656 32.703125 -28.078125 L 32.390625 -27.53125 L 32.359375 -27.140625 Z M 36.734375 -23.859375 C 36.734375 -23.859375 36.738281 -23.878906 36.75 -23.921875 C 36.757812 -23.972656 36.765625 -24 36.765625 -24 C 36.367188 -24.269531 36.101562 -24.53125 35.96875 -24.78125 L 35.03125 -24.265625 C 35.289062 -24.085938 35.578125 -23.941406 35.890625 -23.828125 C 36.203125 -23.710938 36.484375 -23.644531 36.734375 -23.625 Z M 36.734375 -23.859375 "/></g></g></g><g fill="#ffbd59" fill-opacity="1"><g transform="translate(99.489445, 238.511224)"><g><path d="M 15.34375 -74.125 C 16.414062 -74.789062 16.660156 -75.734375 16.078125 -76.953125 L 10.53125 -87.609375 C 10.21875 -88.171875 9.773438 -88.53125 9.203125 -88.6875 C 8.628906 -88.851562 8.0625 -88.78125 7.5 -88.46875 L -33.796875 -64.53125 C -34.921875 -63.800781 -35.195312 -62.835938 -34.625 -61.640625 L -27.390625 -47.28125 C -27.046875 -46.664062 -26.554688 -46.289062 -25.921875 -46.15625 C -25.285156 -46.019531 -24.691406 -46.1875 -24.140625 -46.65625 L -12.640625 -56.1875 L -2.1875 -35.96875 C -2.0625 -36.195312 -1.875 -36.300781 -1.625 -36.28125 L -1.515625 -36.09375 C -1.484375 -36.03125 -1.535156 -35.960938 -1.671875 -35.890625 L -2.125 -35.875 L 3.828125 -24.234375 L 3.921875 -24.28125 C 3.921875 -24.28125 3.914062 -24.253906 3.90625 -24.203125 C 3.894531 -24.160156 3.890625 -24.140625 3.890625 -24.140625 L 11.75 -9.0625 L 11.90625 -8.78125 C 12.144531 -8.351562 12.539062 -8.066406 13.09375 -7.921875 C 13.65625 -7.785156 14.1875 -7.859375 14.6875 -8.140625 L 27.1875 -15.40625 C 28.289062 -16.1875 28.53125 -17.128906 27.90625 -18.234375 L 27.65625 -18.953125 L 27.546875 -18.890625 C 27.367188 -18.796875 27.125 -18.804688 26.8125 -18.921875 C 26.507812 -19.035156 26.328125 -19.15625 26.265625 -19.28125 L 26.234375 -20 C 26.316406 -20.289062 26.304688 -20.53125 26.203125 -20.71875 C 26.160156 -20.78125 26 -20.847656 25.71875 -20.921875 C 25.425781 -21.015625 25.242188 -21.117188 25.171875 -21.234375 C 25.109375 -21.359375 25.097656 -21.597656 25.140625 -21.953125 C 24.972656 -22.265625 24.804688 -22.492188 24.640625 -22.640625 C 24.515625 -22.722656 24.363281 -22.921875 24.1875 -23.234375 C 24.1875 -23.234375 24.210938 -23.332031 24.265625 -23.53125 C 24.328125 -23.5625 24.363281 -23.597656 24.375 -23.640625 C 24.394531 -23.691406 24.421875 -23.769531 24.453125 -23.875 C 24.128906 -23.863281 23.9375 -23.914062 23.875 -24.03125 C 23.675781 -24.082031 23.523438 -24.203125 23.421875 -24.390625 C 23.734375 -24.722656 23.835938 -24.984375 23.734375 -25.171875 C 23.660156 -25.296875 23.398438 -25.394531 22.953125 -25.46875 C 22.878906 -25.59375 23.015625 -25.789062 23.359375 -26.0625 C 23.671875 -26.382812 23.675781 -26.59375 23.375 -26.6875 L 23 -26.703125 C 22.8125 -26.597656 22.640625 -26.546875 22.484375 -26.546875 C 22.410156 -26.671875 22.367188 -26.890625 22.359375 -27.203125 L 22.34375 -27.6875 L 22.234375 -27.875 L 21.90625 -27.8125 C 21.78125 -27.738281 21.691406 -27.671875 21.640625 -27.609375 C 21.597656 -27.546875 21.550781 -27.5 21.5 -27.46875 C 21.363281 -27.394531 21.265625 -27.414062 21.203125 -27.53125 L 21.09375 -27.734375 L 21.203125 -27.78125 C 21.203125 -27.78125 21.207031 -27.804688 21.21875 -27.859375 C 21.238281 -27.910156 21.25 -27.9375 21.25 -27.9375 C 21.320312 -28.0625 21.484375 -28.191406 21.734375 -28.328125 C 21.984375 -28.472656 22.066406 -28.675781 21.984375 -28.9375 L 22.484375 -28.75 L 22.28125 -29.34375 L 21.71875 -29.03125 C 21.40625 -28.863281 21.171875 -29.0625 21.015625 -29.625 C 21.035156 -29.875 20.929688 -30.0625 20.703125 -30.1875 L 20.375 -30.359375 L 20.0625 -30.671875 C 20.03125 -30.734375 20.054688 -30.910156 20.140625 -31.203125 C 20.222656 -31.492188 20.226562 -31.703125 20.15625 -31.828125 L 19.515625 -32.546875 L 18.71875 -33.34375 L 18.65625 -33.65625 L 18.75 -33.703125 L 18.828125 -34.015625 L 18.6875 -34.28125 C 18.550781 -34.53125 18.316406 -34.726562 17.984375 -34.875 L 18.359375 -35.328125 C 18.484375 -35.390625 18.570312 -35.519531 18.625 -35.71875 L 18.890625 -35.859375 L 17.75 -38.15625 L 17.65625 -38.09375 C 17.59375 -38.0625 17.328125 -38.039062 16.859375 -38.03125 C 16.867188 -38.4375 17.023438 -38.726562 17.328125 -38.90625 L 2.9375 -66.640625 Z M -22.96875 -57.265625 L -23.109375 -57.546875 L -22.546875 -57.859375 L -22.40625 -57.578125 Z M -14.578125 -61.421875 L -14.796875 -61.796875 L -14.328125 -62.0625 L -14.109375 -61.6875 Z M -24.46875 -54.71875 C -24.789062 -54.71875 -25.132812 -54.613281 -25.5 -54.40625 C -25.832031 -54.539062 -25.945312 -54.882812 -25.84375 -55.4375 L -25.28125 -55.75 L -24.515625 -55.6875 L -24.296875 -55.3125 Z M -16.390625 -60.3125 C -16.285156 -60.113281 -16.257812 -60 -16.3125 -59.96875 L -16.515625 -59.875 L -16.5625 -59.71875 L -16.96875 -59.609375 L -17.28125 -60.171875 L -16.546875 -60.578125 Z M -29.671875 -52.46875 L -29.828125 -52.75 L -28.984375 -53.203125 L -28.828125 -52.921875 Z M -22.1875 -56.71875 L -22.5 -56.421875 C -22.5625 -56.242188 -22.59375 -56.15625 -22.59375 -56.15625 C -22.832031 -55.84375 -22.804688 -55.648438 -22.515625 -55.578125 C -22.660156 -55.253906 -22.828125 -55.117188 -23.015625 -55.171875 C -23.078125 -55.140625 -23.1875 -55.117188 -23.34375 -55.109375 C -23.507812 -55.097656 -23.640625 -55.109375 -23.734375 -55.140625 C -23.640625 -55.265625 -23.539062 -55.519531 -23.4375 -55.90625 C -23.351562 -56.195312 -23.160156 -56.429688 -22.859375 -56.609375 L -22.65625 -56.703125 Z M -24.921875 -54 L -25.125 -54.359375 L -23.828125 -54.859375 Z M -20.75 -54.609375 C -21.21875 -54.429688 -21.515625 -54.410156 -21.640625 -54.546875 C -21.765625 -54.679688 -21.769531 -54.941406 -21.65625 -55.328125 L -21.46875 -55.421875 L -21.21875 -55.4375 L -20.859375 -55.640625 L -20.484375 -54.984375 Z M -13.875 -59.265625 C -13.738281 -59.015625 -13.707031 -58.75 -13.78125 -58.46875 C -14.132812 -58.507812 -14.363281 -58.625 -14.46875 -58.8125 L -14.1875 -58.96875 Z M -23.671875 -52.609375 L -23.875 -53 L -23.3125 -53.3125 L -23.109375 -52.921875 Z M -17.203125 -56.09375 C -17.117188 -55.800781 -17.378906 -55.535156 -17.984375 -55.296875 C -18.109375 -55.222656 -18.21875 -55.203125 -18.3125 -55.234375 L -18.59375 -55.078125 C -18.757812 -55.066406 -18.960938 -54.992188 -19.203125 -54.859375 C -19.222656 -55.335938 -19.078125 -55.660156 -18.765625 -55.828125 C -18.640625 -55.898438 -18.171875 -56.078125 -17.359375 -56.359375 Z M 2.796875 -32.046875 L 2.5625 -32.015625 L 2.734375 -32.390625 L 2.8125 -32.671875 L 3.21875 -32.390625 L 2.84375 -31.953125 Z M 13.65625 -37.203125 C 13.601562 -37.015625 13.546875 -36.90625 13.484375 -36.875 C 13.484375 -36.875 13.472656 -36.847656 13.453125 -36.796875 C 13.429688 -36.753906 13.421875 -36.734375 13.421875 -36.734375 L 13.21875 -36.71875 L 13.109375 -36.90625 Z M 5.375 -28.5 C 5.476562 -28.3125 5.550781 -28.023438 5.59375 -27.640625 C 5.644531 -27.265625 5.625 -27.007812 5.53125 -26.875 C 5.71875 -26.832031 5.867188 -26.710938 5.984375 -26.515625 C 5.953125 -26.421875 5.992188 -26.304688 6.109375 -26.171875 C 6.222656 -26.035156 6.296875 -25.9375 6.328125 -25.875 C 6.398438 -25.75 6.632812 -25.472656 7.03125 -25.046875 L 7.625 -24.640625 C 7.757812 -24.390625 7.722656 -24.085938 7.515625 -23.734375 L 7.765625 -23.734375 C 7.898438 -23.484375 8.066406 -23.210938 8.265625 -22.921875 C 8.472656 -22.628906 8.613281 -22.34375 8.6875 -22.0625 C 8.769531 -21.625 9 -21.429688 9.375 -21.484375 C 9.332031 -21.117188 9.21875 -20.882812 9.03125 -20.78125 C 9.3125 -20.707031 9.453125 -20.671875 9.453125 -20.671875 C 9.578125 -20.742188 9.675781 -20.71875 9.75 -20.59375 L 9.703125 -20.4375 C 9.671875 -20.34375 9.59375 -20.265625 9.46875 -20.203125 L 8.765625 -19.921875 L 8.3125 -19.90625 C 8.175781 -19.832031 8.054688 -19.8125 7.953125 -19.84375 L 7.484375 -20.90625 L 6.5625 -23.0625 C 6.394531 -23.632812 6.238281 -23.914062 6.09375 -23.90625 L 5.734375 -24.546875 C 5.804688 -24.992188 5.769531 -25.34375 5.625 -25.59375 C 5.59375 -25.65625 5.429688 -25.726562 5.140625 -25.8125 C 4.984375 -25.8125 4.835938 -25.847656 4.703125 -25.921875 C 4.671875 -25.992188 4.6875 -26.128906 4.75 -26.328125 L 4.859375 -26.75 C 4.671875 -26.8125 4.539062 -26.898438 4.46875 -27.015625 C 4.40625 -27.140625 4.40625 -27.222656 4.46875 -27.265625 L 4.40625 -27.59375 C 4.269531 -27.6875 4.132812 -27.859375 4 -28.109375 C 3.757812 -28.546875 3.679688 -29.265625 3.765625 -30.265625 C 3.972656 -29.898438 4.15625 -29.800781 4.3125 -29.96875 C 4.582031 -30.039062 4.769531 -29.984375 4.875 -29.796875 L 5 -29.375 Z M 19.734375 -34.125 C 19.765625 -34.070312 19.753906 -34.03125 19.703125 -34 C 19.703125 -34 19.71875 -33.96875 19.75 -33.90625 C 19.78125 -33.84375 19.796875 -33.8125 19.796875 -33.8125 L 19.875 -33.859375 Z M 19.875 -29.484375 C 19.945312 -29.347656 19.941406 -29.222656 19.859375 -29.109375 L 19.421875 -28.96875 L 19.265625 -29.265625 C 19.359375 -29.242188 19.472656 -29.265625 19.609375 -29.328125 Z M 11.875 -16.0625 C 11.644531 -15.757812 11.640625 -15.554688 11.859375 -15.453125 C 12.003906 -15.191406 12.066406 -14.859375 12.046875 -14.453125 L 11.625 -14.09375 C 11.070312 -14.351562 10.765625 -14.550781 10.703125 -14.6875 C 10.546875 -14.675781 10.382812 -14.828125 10.21875 -15.140625 C 10.1875 -15.191406 10.226562 -15.253906 10.34375 -15.328125 C 10.46875 -15.390625 10.351562 -15.53125 10 -15.75 C 10.019531 -15.84375 9.992188 -15.953125 9.921875 -16.078125 L 9.921875 -16.296875 L 9.390625 -17.46875 C 9.285156 -17.65625 9.1875 -17.765625 9.09375 -17.796875 C 8.957031 -17.890625 8.84375 -18.023438 8.75 -18.203125 C 8.65625 -18.234375 8.625 -18.4375 8.65625 -18.8125 C 8.6875 -19.195312 8.757812 -19.503906 8.875 -19.734375 C 8.9375 -19.773438 8.988281 -19.785156 9.03125 -19.765625 C 9.082031 -19.753906 9.160156 -19.734375 9.265625 -19.703125 L 9.59375 -19.78125 Z M 11.875 -16.0625 "/></g></g></g><g fill="#ffbd59" fill-opacity="1"><g transform="translate(171.43695, 368.418126)"><g><path d="M 7.328125 -21.4375 C 3.898438 -20.90625 0.195312 -20.71875 -3.78125 -20.875 C -4.195312 -20.875 -4.5625 -20.789062 -4.875 -20.625 C -5.675781 -20.175781 -6.023438 -19.503906 -5.921875 -18.609375 L -5.46875 -8.15625 C -5.457031 -7.675781 -5.367188 -7.28125 -5.203125 -6.96875 C -4.859375 -6.351562 -4.238281 -6.046875 -3.34375 -6.046875 C 4.800781 -6.097656 11.070312 -7.054688 15.46875 -8.921875 C 17.269531 -9.765625 18.609375 -10.425781 19.484375 -10.90625 C 23.203125 -12.96875 26.25 -15.425781 28.625 -18.28125 C 30.863281 -20.988281 32.144531 -24.09375 32.46875 -27.59375 C 32.800781 -31.09375 32.332031 -34.796875 31.0625 -38.703125 L 31 -38.796875 C 30.820312 -39.265625 30.476562 -39.96875 29.96875 -40.90625 C 26.15625 -47.78125 19.117188 -51.410156 8.859375 -51.796875 L 4.984375 -51.96875 C 3.085938 -52.050781 1.316406 -52.328125 -0.328125 -52.796875 C -2.910156 -53.378906 -4.769531 -54.695312 -5.90625 -56.75 C -6.59375 -57.988281 -6.953125 -59.367188 -6.984375 -60.890625 C -7.316406 -63.234375 -6.488281 -64.742188 -4.5 -65.421875 L -4.421875 -65.46875 C -3.710938 -65.789062 -2.953125 -65.445312 -2.140625 -64.4375 C -0.691406 -62.25 0.613281 -60.097656 1.78125 -57.984375 C 2.46875 -56.742188 3.429688 -56.460938 4.671875 -57.140625 L 15.46875 -63.125 C 16.695312 -63.8125 16.984375 -64.742188 16.328125 -65.921875 C 15.367188 -67.960938 14.492188 -69.695312 13.703125 -71.125 C 13.015625 -72.363281 12.332031 -73.453125 11.65625 -74.390625 C 9.726562 -77.285156 7.601562 -79.222656 5.28125 -80.203125 C 0.695312 -82.035156 -4.503906 -81.335938 -10.328125 -78.109375 C -11.941406 -77.222656 -13.441406 -76.273438 -14.828125 -75.265625 C -21.203125 -70.679688 -24.429688 -64.804688 -24.515625 -57.640625 C -24.671875 -52.671875 -23.65625 -48.203125 -21.46875 -44.234375 C -20.570312 -42.628906 -19.472656 -41.09375 -18.171875 -39.625 C -16.117188 -37.363281 -13.820312 -35.925781 -11.28125 -35.3125 C -11.28125 -35.3125 -11.257812 -35.300781 -11.21875 -35.28125 C -11.175781 -35.269531 -11.15625 -35.265625 -11.15625 -35.265625 C -6.707031 -34.398438 -4.082031 -33.988281 -3.28125 -34.03125 L -3.0625 -34.03125 L -0.578125 -33.9375 C 3.648438 -33.769531 6.429688 -33.570312 7.765625 -33.34375 C 10.484375 -32.976562 12.445312 -31.710938 13.65625 -29.546875 C 14.40625 -28.191406 14.566406 -26.90625 14.140625 -25.6875 C 13.722656 -24.476562 12.828125 -23.5 11.453125 -22.75 C 10.347656 -22.125 8.972656 -21.6875 7.328125 -21.4375 Z M 0.234375 -69.765625 L 0.609375 -69.96875 L 0.71875 -69.796875 L 0.34375 -69.59375 Z M 4.40625 -67.9375 C 4.382812 -67.84375 4.328125 -67.769531 4.234375 -67.71875 C 4.148438 -67.664062 4.097656 -67.71875 4.078125 -67.875 C 4.078125 -67.875 4.082031 -67.894531 4.09375 -67.9375 C 4.113281 -67.988281 4.125 -68.015625 4.125 -68.015625 L 4.109375 -68.25 C 4.109375 -68.25 4.132812 -68.238281 4.1875 -68.21875 C 4.238281 -68.207031 4.265625 -68.203125 4.265625 -68.203125 L 4.5 -68.21875 Z M 4.421875 -63.09375 C 4.492188 -62.96875 4.5 -62.882812 4.4375 -62.84375 L 3.96875 -62.59375 C 3.832031 -62.832031 3.921875 -63.035156 4.234375 -63.203125 Z M 11.15625 -45.671875 C 11.363281 -45.617188 11.515625 -45.5 11.609375 -45.3125 L 10.859375 -44.890625 C 10.859375 -44.890625 10.765625 -44.976562 10.578125 -45.15625 C 10.390625 -45.34375 10.28125 -45.628906 10.25 -46.015625 L 10.796875 -46.328125 C 10.898438 -46.296875 11.019531 -46.15625 11.15625 -45.90625 Z M 7.15625 -43.453125 L 6.953125 -43.828125 L 7.796875 -44.296875 L 8 -43.921875 Z M 12.59375 -45.734375 L 12.453125 -45.53125 L 12.5 -45.453125 L 11.984375 -44.65625 C 11.515625 -44.882812 11.28125 -45 11.28125 -45 C 11.363281 -45.132812 11.53125 -45.269531 11.78125 -45.40625 L 12.15625 -45.609375 Z M 11.734375 -41.125 C 11.921875 -41.070312 12.050781 -40.988281 12.125 -40.875 L 11.984375 -40.65625 L 11.75 -40.65625 L 11.5625 -40.5625 L 11.203125 -41.203125 L 11.484375 -41.109375 Z M 17.515625 -42.515625 L 17.390625 -42.328125 L 16.828125 -42.015625 C 16.691406 -42.253906 16.757812 -42.578125 17.03125 -42.984375 L 17.609375 -42.796875 L 17.703125 -42.625 Z M 16.953125 -40.25 L 16.796875 -40.515625 L 17.6875 -40.90625 L 17.90625 -40.515625 Z M 23.046875 -41.328125 C 23.097656 -41.359375 23.160156 -41.3125 23.234375 -41.1875 C 23.441406 -40.8125 23.363281 -40.523438 23 -40.328125 C 22.625 -40.117188 22.285156 -40.128906 21.984375 -40.359375 L 21.921875 -40.9375 L 22.765625 -41.390625 C 22.796875 -41.335938 22.84375 -41.332031 22.90625 -41.375 Z M 19.0625 -38.609375 L 18.59375 -38.609375 L 18.71875 -39.046875 L 19.140625 -39.171875 Z M 21.703125 -37.171875 C 21.765625 -37.046875 21.890625 -37.035156 22.078125 -37.140625 C 22.148438 -37.015625 22.15625 -36.9375 22.09375 -36.90625 L 22.203125 -36.71875 C 22.140625 -36.675781 22.125 -36.628906 22.15625 -36.578125 L 21.515625 -36.21875 L 21.375 -36.25 L 21.265625 -36.203125 L 21.015625 -36.1875 L 20.84375 -36.953125 L 21.21875 -37.15625 Z M 25.671875 -39 L 26 -39.0625 L 25.828125 -38.71875 L 25.6875 -38.546875 C 25.601562 -38.234375 25.503906 -38.046875 25.390625 -37.984375 L 25.1875 -38.359375 C 25.039062 -38.453125 25 -38.597656 25.0625 -38.796875 L 25.421875 -39 Z M 23.703125 -35.734375 C 23.453125 -35.597656 23.21875 -35.546875 23 -35.578125 C 22.78125 -35.617188 22.648438 -35.753906 22.609375 -35.984375 C 22.671875 -36.015625 22.753906 -36.078125 22.859375 -36.171875 C 22.960938 -36.273438 23.132812 -36.394531 23.375 -36.53125 L 23.515625 -36.734375 C 23.554688 -36.816406 23.664062 -36.910156 23.84375 -37.015625 L 24.203125 -36.59375 L 23.984375 -36.125 Z M 24.046875 -33.984375 C 24.828125 -33.765625 25.234375 -33.625 25.265625 -33.5625 C 25.335938 -33.445312 25.359375 -33.332031 25.328125 -33.21875 L 25.4375 -33.03125 L 25.25 -32.9375 L 25.125 -32.734375 L 24.828125 -32.578125 C 24.648438 -32.484375 24.46875 -32.460938 24.28125 -32.515625 L 24 -32.359375 C 24 -32.359375 23.878906 -32.3125 23.640625 -32.21875 C 23.398438 -32.132812 23.082031 -32.023438 22.6875 -31.890625 C 22.488281 -31.941406 22.375 -32 22.34375 -32.0625 L 22.203125 -32.09375 L 22 -32.46875 L 22.28125 -32.625 C 22.59375 -32.800781 22.851562 -32.910156 23.0625 -32.953125 C 23.226562 -32.953125 23.398438 -33.003906 23.578125 -33.109375 L 23.671875 -33.15625 C 23.796875 -33.226562 23.875 -33.3125 23.90625 -33.40625 L 24.046875 -33.609375 C 24.003906 -33.671875 24.003906 -33.796875 24.046875 -33.984375 Z M 27.28125 -34.796875 L 27.390625 -34.609375 L 26.640625 -34.1875 C 26.722656 -34.476562 26.710938 -34.71875 26.609375 -34.90625 L 27.25 -35.265625 Z M 26.71875 -33.390625 L 26.40625 -33.953125 L 26.875 -34.21875 L 27.1875 -33.65625 Z M 24.921875 -31.796875 C 24.992188 -31.671875 24.925781 -31.425781 24.71875 -31.0625 L 24.265625 -30.34375 L 23.90625 -30.140625 C 23.53125 -29.929688 23.242188 -29.851562 23.046875 -29.90625 L 22.953125 -30.09375 C 22.847656 -30.28125 22.929688 -30.566406 23.203125 -30.953125 C 23.390625 -31.054688 23.5 -31.15625 23.53125 -31.25 C 23.738281 -31.613281 23.820312 -31.75 23.78125 -31.65625 L 24.71875 -32.171875 Z M 27.96875 -32.625 C 28.269531 -32.539062 28.4375 -32.46875 28.46875 -32.40625 C 28.644531 -32.101562 28.578125 -31.867188 28.265625 -31.703125 L 28.046875 -31.21875 C 27.617188 -31.382812 27.351562 -31.554688 27.25 -31.734375 C 27.050781 -32.109375 27.082031 -32.414062 27.34375 -32.65625 Z M 25.796875 -30.453125 C 25.515625 -30.210938 25.171875 -30.023438 24.765625 -29.890625 L 24.546875 -30.25 L 24.78125 -30.734375 L 25.34375 -31.046875 C 25.40625 -31.078125 25.484375 -31 25.578125 -30.8125 Z M 6.875 -19.84375 L 6.71875 -20.109375 L 7.28125 -20.421875 L 7.4375 -20.15625 Z M 24.5625 -28.078125 L 24.46875 -27.765625 L 24.28125 -27.671875 C 24.320312 -27.609375 24.28125 -27.539062 24.15625 -27.46875 L 23.953125 -27.84375 C 23.878906 -27.96875 23.867188 -28.128906 23.921875 -28.328125 C 23.984375 -28.359375 24.035156 -28.363281 24.078125 -28.34375 C 24.128906 -28.332031 24.15625 -28.328125 24.15625 -28.328125 L 24.359375 -28.1875 Z M 22.015625 -25.203125 C 22.171875 -25.203125 22.332031 -25.046875 22.5 -24.734375 C 22.257812 -24.597656 21.976562 -24.523438 21.65625 -24.515625 C 21.71875 -24.546875 21.753906 -24.582031 21.765625 -24.625 C 21.773438 -24.675781 21.78125 -24.703125 21.78125 -24.703125 C 21.75 -24.765625 21.800781 -24.832031 21.9375 -24.90625 L 21.890625 -25 C 21.847656 -25.0625 21.890625 -25.128906 22.015625 -25.203125 Z M 27.234375 -27.84375 C 27.328125 -27.8125 27.410156 -27.734375 27.484375 -27.609375 C 27.296875 -27.503906 26.867188 -27.394531 26.203125 -27.28125 L 27.125 -28.03125 Z M 10.328125 -17.984375 L 9.84375 -17.96875 L 9.984375 -18.40625 L 10.40625 -18.53125 Z M 23.203125 -24.390625 C 23.441406 -24.523438 23.609375 -24.578125 23.703125 -24.546875 L 24.21875 -24.734375 C 24.394531 -24.421875 24.234375 -24.125 23.734375 -23.84375 C 23.703125 -23.894531 23.5625 -23.851562 23.3125 -23.71875 Z M 21.6875 -22.703125 L 21.421875 -23.171875 L 21.796875 -23.390625 L 22.0625 -22.921875 Z M 14.140625 -16.328125 L 13.984375 -16.625 L 14.640625 -17 L 14.796875 -16.703125 Z M 24.4375 -21.6875 C 24.28125 -21.675781 24.164062 -21.726562 24.09375 -21.84375 C 23.988281 -22.039062 24 -22.175781 24.125 -22.25 L 24.875 -22.65625 Z M 24.4375 -21.6875 "/></g></g></g></svg>